<svg width="256" height="206" viewBox="0 0 256 206" fill="none" xmlns="http://www.w3.org/2000/svg">
<path d="M51.4597 205.839C37.4995 205.839 25.3957 203.388 15.1483 198.487C5.04943 193.735 0 186.383 0 176.433C0 170.493 2.45046 165.22 7.35138 160.616C12.4008 156.013 18.7869 152.226 26.5095 149.255C34.2322 146.137 42.9944 143.389 52.7963 141.013C54.727 140.419 56.2863 140.047 57.4744 139.899L61.7071 144.354C55.1725 146.434 49.826 148.587 45.6677 150.815C41.5093 153.042 38.3163 155.567 36.0886 158.389C33.8609 161.062 32.7471 164.032 32.7471 167.3C32.7471 171.903 34.8262 175.096 38.9846 176.879C43.2915 178.809 48.935 179.775 55.9151 179.775C62.5981 179.775 68.9842 179.032 75.0732 177.547C81.3107 176.062 86.4344 173.908 90.4443 171.087C94.4541 168.265 96.459 164.923 96.459 161.062C96.459 158.537 95.3452 156.532 93.1175 155.047C90.8898 153.562 87.771 152.82 83.7612 152.82C80.1969 152.82 76.5583 153.191 72.8455 153.933C69.1327 154.527 64.5288 155.493 59.0338 156.829C54.2814 158.166 50.1973 159.131 46.7815 159.725C43.3657 160.468 40.1727 160.839 37.2024 160.839C31.1134 160.839 25.4699 159.8 20.272 157.72C15.2226 155.493 11.1385 152.523 8.01969 148.81C5.04943 144.948 3.56431 140.567 3.56431 135.666C3.56431 128.835 6.9801 122.894 13.8117 117.845C20.7918 112.647 30.3709 108.117 42.5489 104.256L49.9003 110.716C47.9696 111.31 46.1875 111.904 44.5538 112.498C40.6925 113.835 37.7965 115.32 35.8658 116.954C33.9352 118.587 32.9698 120.815 32.9698 123.637C32.9698 126.013 33.9352 127.795 35.8658 128.983C37.945 130.171 40.544 130.765 43.6628 130.765C47.0785 130.765 50.6429 130.543 54.3557 130.097C58.0685 129.503 61.9298 128.761 65.9397 127.869C72.3257 126.681 77.8949 125.79 82.6474 125.196C87.3998 124.602 92.5977 124.305 98.2412 124.305C108.192 124.305 116.434 126.681 122.969 131.434C129.652 136.186 132.993 143.463 132.993 153.265C132.993 164.552 128.761 174.131 120.295 182.002C111.979 190.022 101.508 195.962 88.8849 199.824C76.2613 203.834 63.7862 205.839 51.4597 205.839ZM60.816 120.073C50.2716 120.073 40.9153 118.29 32.7471 114.726C24.7274 111.013 18.4156 105.89 13.8117 99.355C9.3563 92.8204 7.12861 85.4691 7.12861 77.3009C7.12861 69.2812 9.3563 62.0783 13.8117 55.6923C18.4156 49.1577 24.8016 44.1083 32.9698 40.544C41.138 36.8311 50.4201 34.9747 60.816 34.9747C67.202 34.9747 72.3257 35.4945 76.187 36.5341C80.1969 37.5737 84.5038 38.9846 89.1077 40.7667C90.8898 41.5093 92.5234 42.1776 94.0086 42.7717C95.6422 43.2172 97.2016 43.44 98.6867 43.44C102.548 43.44 105.296 42.1033 106.929 39.4301C108.563 36.7569 109.38 33.2668 109.38 28.96L137.449 37.8707C137.3 43.5142 134.998 47.8953 130.543 51.0141C126.236 53.9844 120.518 55.4695 113.389 55.4695C111.607 55.321 109.602 55.1725 107.375 55.024C112.127 61.5585 114.503 68.9841 114.503 77.3009C114.503 85.4691 112.201 92.8204 107.597 99.355C103.142 105.89 96.8303 111.013 88.6621 114.726C80.4939 118.29 71.2119 120.073 60.816 120.073ZM60.816 98.2411C64.5288 98.2411 67.7961 97.3501 70.6178 95.5679C73.4396 93.7858 75.593 91.3353 77.0781 88.2165C78.5633 84.9493 79.3058 81.3107 79.3058 77.3009C79.3058 71.3603 77.5979 66.4594 74.1821 62.5981C70.9148 58.7368 66.4595 56.8061 60.816 56.8061C57.1032 56.8061 53.8359 57.6972 51.0141 59.4793C48.1924 61.2615 45.9647 63.7119 44.3311 66.8307C42.8459 69.9495 42.1034 73.4395 42.1034 77.3009C42.1034 83.3899 43.8113 88.4393 47.2271 92.4492C50.7914 96.3105 55.321 98.2411 60.816 98.2411Z" fill="#289B00"/>
<path d="M189.838 162.399C178.551 162.399 168.526 159.725 159.764 154.379C151.001 149.032 144.17 141.533 139.269 131.879C134.517 122.226 132.14 111.162 132.14 98.6867C132.14 86.2116 134.517 75.1474 139.269 65.4941C144.17 55.8408 151.001 48.3409 159.764 42.9944C168.526 37.648 178.551 34.9747 189.838 34.9747C199.491 34.9747 208.253 37.5737 216.124 42.7717C224.144 47.8211 230.307 54.7269 234.614 63.4892V0H254.886V130.32C254.886 141.013 255.257 150.666 256 159.28H234.614V133.661C230.456 142.424 224.367 149.404 216.347 154.602C208.476 159.8 199.639 162.399 189.838 162.399ZM153.972 98.6867C153.972 107.894 155.68 116.137 159.095 123.414C162.511 130.543 167.264 136.112 173.353 140.122C179.442 144.132 186.422 146.136 194.293 146.136C201.719 146.136 208.476 144.206 214.565 140.344C220.802 136.483 225.703 131.434 229.268 125.196C232.832 118.81 234.614 111.83 234.614 104.256V93.1175C234.614 85.5433 232.758 78.5632 229.045 72.1772C225.481 65.7911 220.58 60.7417 214.342 57.0289C208.253 53.1675 201.57 51.2369 194.293 51.2369C186.422 51.2369 179.442 53.2418 173.353 57.2516C167.264 61.2615 162.511 66.905 159.095 74.1821C155.68 81.3107 153.972 89.4789 153.972 98.6867Z" fill="#289B00"/>
</svg>
